FFmpeg version SVN-r25716, Copyright (c) 2000-2010 the FFmpeg developers  built on Nov 10 2010 12:23:18 with gcc 4.1.2 20080704 (Red Hat 4.1.2-48)  configuration: --enable-libmp3lame --enable-shared --disable-mmx --arch=x86_64  libavutil     50.33. 0 / 50.33. 0  libavcore      0.12. 1 /  0.12. 1  libavcodec    52.94. 4 / 52.94. 4  libavformat   52.84. 0 / 52.84. 0  libavdevice   52. 2. 2 / 52. 2. 2  libavfilter    1.59. 0 /  1.59. 0  libswscale     0.12. 0 /  0.12. 0Input #0, avi, from '/RAID10/data/converted_video_files/47660.avi':  Duration: 00:00:10.30, start: 0.000000, bitrate: 20977 kb/s    Stream #0.0: Video: msvideo1, rgb555le, 1024x1024, 20 tbr, 20 tbn, 20 tbc[buffer @ 0x7ba1510] w:1024 h:1024 pixfmt:rgb555le[ffsink @ 0x7bbede0] auto-inserting filter 'auto-inserted scaler 0' between the filter 'src' and the filter 'out'[scale @ 0x7bbf100] w:1024 h:1024 fmt:rgb555le -> w:1024 h:1024 fmt:yuv420p flags:0x4Output #0, flv, to '/RAID10/data/converted_video_files/47660.flv':  Metadata:    encoder         : Lavf52.84.0    Stream #0.0: Video: flv, yuv420p, 1024x1024, q=2-31, 600 kb/s, 1k tbn, 24 tbcStream mapping:  Stream #0.0 -> #0.0Press [q] to stop encodingframe=    7 fps=  0 q=7.9 size=     656kB time=0.33 bitrate=16100.8kbits/s    frame=   15 fps= 13 q=21.2 size=     839kB time=0.75 bitrate=9159.9kbits/s    frame=   24 fps= 14 q=31.0 size=     900kB time=1.17 bitrate=6320.8kbits/s    frame=   35 fps= 15 q=31.0 size=     958kB time=1.75 bitrate=4485.5kbits/s    frame=   45 fps= 16 q=31.0 size=     987kB time=2.25 bitrate=3592.0kbits/s    frame=   55 fps= 17 q=31.0 size=    1038kB time=2.75 bitrate=3092.4kbits/s    frame=   64 fps= 16 q=31.0 size=    1087kB time=3.21 bitrate=2775.3kbits/s    frame=   67 fps= 15 q=31.0 size=    1094kB time=3.33 bitrate=2688.4kbits/s    frame=   75 fps= 15 q=31.0 size=    1140kB time=3.75 bitrate=2490.9kbits/s    frame=   86 fps= 16 q=31.0 size=    1193kB time=4.29 bitrate=2277.7kbits/s    frame=   94 fps= 16 q=24.8 size=    1236kB time=4.71 bitrate=2150.8kbits/s    frame=  104 fps= 16 q=31.0 size=    1263kB time=5.21 bitrate=1986.7kbits/s    frame=  115 fps= 16 q=31.0 size=    1334kB time=5.75 bitrate=1900.3kbits/s    frame=  125 fps= 17 q=31.0 size=    1396kB time=6.25 bitrate=1829.4kbits/s    frame=  136 fps= 17 q=31.0 size=    1453kB time=6.79 bitrate=1752.2kbits/s    frame=  146 fps= 17 q=31.0 size=    1509kB time=7.29 bitrate=1695.9kbits/s    frame=  155 fps= 17 q=31.0 size=    1568kB time=7.75 bitrate=1657.5kbits/s    frame=  162 fps= 17 q=31.0 size=    1585kB time=8.08 bitrate=1606.2kbits/s    frame=  171 fps= 17 q=31.0 size=    1638kB time=8.54 bitrate=1571.1kbits/s    frame=  180 fps= 17 q=31.0 size=    1687kB time=9.00 bitrate=1535.8kbits/s    frame=  190 fps= 17 q=24.8 size=    1737kB time=9.50 bitrate=1498.3kbits/s    frame=  201 fps= 17 q=31.0 size=    1769kB time=10.04 bitrate=1443.0kbits/s    frame=  206 fps= 17 q=31.0 Lsize=    1812kB time=10.29 bitrate=1442.4kbits/s    video:1808kB audio:0kB global headers:0kB muxing overhead 0.189319%